<svg width="25" height="24" viewBox="0 0 25 24" fill="none" xmlns="http://www.w3.org/2000/svg">
<g id="icon">
<path id="icon_2" d="M4.80005 13.4999H11.75V20.6999C11.75 20.8659 11.616 20.9999 11.45 20.9999H7.5C5.5 20.9999 4.5 19.9999 4.5 17.9999V13.7999C4.5 13.6339 4.63405 13.4999 4.80005 13.4999ZM20.2 13.4999H13.25V20.6999C13.25 20.8659 13.384 20.9999 13.55 20.9999H17.5C19.5 20.9999 20.5 19.9999 20.5 17.9999V13.7999C20.5 13.6339 20.366 13.4999 20.2 13.4999ZM21.5 8.49991V11.6999C21.5 11.8659 21.366 11.9999 21.2 11.9999H13.25V8.49991H11.75V11.9999H3.80005C3.63405 11.9999 3.5 11.8659 3.5 11.6999V8.49991C3.5 7.67191 4.172 6.99991 5 6.99991H6.06494C5.74594 6.38191 5.62701 5.6449 5.91101 4.8439C6.19401 4.0459 6.83995 3.38493 7.64795 3.13193C8.76595 2.78193 9.916 3.1479 10.62 4.0029C10.652 4.0419 11.777 5.53889 12.501 6.50089C13.224 5.53889 14.348 4.0449 14.375 4.0109C15.084 3.1489 16.224 2.78589 17.339 3.12589C18.119 3.36489 18.753 3.98291 19.053 4.74191C19.385 5.58191 19.269 6.35493 18.937 6.99893H20.002C20.828 6.99993 21.5 7.67191 21.5 8.49991ZM10.998 6.99991C10.321 6.09991 9.503 5.01189 9.448 4.94089C9.219 4.66189 8.878 4.49991 8.5 4.49991C7.811 4.49991 7.25 5.06091 7.25 5.74991C7.25 6.43891 7.811 6.99991 8.5 6.99991H10.998ZM17.75 5.74991C17.75 5.06091 17.189 4.49991 16.5 4.49991C16.122 4.49991 15.7809 4.66188 15.5389 4.95688C15.4919 5.01888 14.677 6.10191 14.002 6.99991H16.5C17.189 6.99991 17.75 6.43891 17.75 5.74991Z" fill="white"/>
</g>
</svg>
